<svg width="20" height="15" viewBox="0 0 20 15" fill="none" xmlns="http://www.w3.org/2000/svg">
<path d="M19.7235 13.4764C19.6621 13.9235 18.947 14.3257 18.4369 14.2198C17.9258 14.1138 17.2739 13.8167 17.4365 12.8829C17.599 11.9492 17.9674 9.27642 17.58 6.79395C17.1918 4.31055 15.823 2.12621 15.5801 1.74465C15.3345 1.36216 15.4763 0.513731 15.8654 0.258735C16.2537 0.0037385 16.9868 -0.165947 17.2938 0.258735C17.599 0.683416 19.1294 2.59308 19.7226 6.49677C20.3149 10.4005 19.784 13.0311 19.7226 13.4764H19.7235ZM15.4348 11.9914C15.3797 12.6598 14.9057 13.0957 14.2926 13.032C13.6804 12.9682 13.0069 12.8829 13.1495 11.397C13.183 11.0576 13.4168 9.50798 13.1495 7.98175C12.8769 6.41896 12.0769 4.95461 11.8638 4.56649C11.3727 3.6665 11.9451 3.20807 12.2927 2.93151C12.6403 2.65683 13.471 2.6287 13.7211 2.93151C14.0335 3.30932 14.9887 5.60522 15.2921 7.53644C15.5765 9.32892 15.4853 11.3998 15.4348 11.9914ZM9.00619 13.3292C8.71997 13.2307 6.24967 12.1704 6.14854 12.1395C6.04832 12.1104 5.95532 11.9914 5.72057 11.9914H4.43396C4.43396 11.9914 5.69349 13.5701 5.86323 13.7735C6.03207 13.9798 6.42754 14.6248 5.86323 14.8132C5.29712 15.0026 4.57661 15.2191 4.00599 14.516C3.50037 13.8935 2.2905 12.2886 2.2905 12.2886H1.14834C0.967765 12.2886 0.511806 12.1779 0.434158 11.8433C0.357412 11.5076 0.0459153 9.32892 0.00618814 9.02142C-0.033539 8.71393 0.119049 8.28175 0.434158 8.12987C0.750169 7.97894 3.97348 6.89051 4.2922 6.79395C4.60099 6.69828 4.89128 6.54726 5.14995 6.34771C5.39282 6.16021 7.38821 4.32274 7.57872 4.12118C7.76833 3.91774 8.48522 3.884 8.72087 4.12118C8.95743 4.35649 10.551 6.02896 10.8652 8.42799C11.1776 10.8251 10.3732 12.8689 10.1501 13.1801C9.92713 13.4914 9.29421 13.4248 9.00709 13.3292H9.00619Z" fill="white"/>
</svg>
